<svg height="512" viewBox="0 0 68 64" width="512" xmlns="http://www.w3.org/2000/svg"><g id="Page-1" fill="none" fill-rule="evenodd"><g id="shelter_filled" fill="rgb(0,0,0)" fill-rule="nonzero" transform="translate(-56 -416)"><path id="family,-mother,-father,-child,-roof,-home" d="m90 452c-4.418278 0-8-3.581722-8-8s3.581722-8 8-8 8 3.581722 8 8-3.581722 8-8 8zm-31.1983623-18.167685c-1.0119595.442732-2.1912201-.018718-2.6339524-1.030677-.4427322-1.01196.0187176-2.19122 1.030677-2.633953l32-14c.511041-.22358 1.0922344-.22358 1.6032754 0l32.0000003 14c1.011959.442733 1.473409 1.621993 1.030677 2.633953-.442733 1.011959-1.621993 1.473409-2.633953 1.030677l-31.198362-13.649284zm31.1983623 21.167685c4.418278 0 8 3.581722 8 8v15c0 1.104569-.8954305 2-2 2h-12c-1.1045695 0-2-.895431-2-2v-15c0-4.418278 3.581722-8 8-8zm21 7c-3.865993 0-7-3.134007-7-7s3.134007-7 7-7 7 3.134007 7 7-3.134007 7-7 7zm7 10v6c0 1.104569-.895431 2-2 2h-10c-1.104569 0-2-.895431-2-2v-6c0-3.865993 3.134007-7 7-7s7 3.134007 7 7zm-49-11c-3.8659932 0-7-3.134007-7-7s3.1340068-7 7-7 7 3.134007 7 7-3.1340068 7-7 7zm0 3c3.8659932 0 7 3.134007 7 7v7c0 1.104569-.8954305 2-2 2h-10c-1.1045695 0-2-.895431-2-2v-7c0-3.865993 3.1340068-7 7-7z"/></g></g></svg>